<?xml version="1.0" encoding="UTF-8"?><svg xmlns="http://www.w3.org/2000/svg" xmlns:xlink="http://www.w3.org/1999/xlink" contentScriptType="text/ecmascript" width="375" zoomAndPan="magnify" contentStyleType="text/css" viewBox="0 0 375 374.999991" height="374.999991" preserveAspectRatio="xMidYMid meet" version="1.0"><defs><clipPath id="clip-0"><path d="M 0 59.363281 L 375 59.363281 L 375 309.113281 L 0 309.113281 Z M 0 59.363281 " clip-rule="nonzero"/></clipPath><clipPath id="clip-1"><path d="M 0 106 L 203 106 L 203 309.113281 L 0 309.113281 Z M 0 106 " clip-rule="nonzero"/></clipPath><clipPath id="clip-2"><path d="M 0 140 L 169 140 L 169 309.113281 L 0 309.113281 Z M 0 140 " clip-rule="nonzero"/></clipPath><clipPath id="clip-3"><path d="M 0 174 L 136 174 L 136 309.113281 L 0 309.113281 Z M 0 174 " clip-rule="nonzero"/></clipPath><clipPath id="clip-4"><path d="M 0 207 L 102 207 L 102 309.113281 L 0 309.113281 Z M 0 207 " clip-rule="nonzero"/></clipPath><clipPath id="clip-5"><path d="M 0 241 L 68 241 L 68 309.113281 L 0 309.113281 Z M 0 241 " clip-rule="nonzero"/></clipPath><clipPath id="clip-6"><path d="M 0 275 L 34 275 L 34 309.113281 L 0 309.113281 Z M 0 275 " clip-rule="nonzero"/></clipPath><clipPath id="clip-7"><path d="M 172 59.363281 L 375 59.363281 L 375 262 L 172 262 Z M 172 59.363281 " clip-rule="nonzero"/></clipPath><clipPath id="clip-8"><path d="M 206 59.363281 L 375 59.363281 L 375 229 L 206 229 Z M 206 59.363281 " clip-rule="nonzero"/></clipPath><clipPath id="clip-9"><path d="M 239 59.363281 L 375 59.363281 L 375 195 L 239 195 Z M 239 59.363281 " clip-rule="nonzero"/></clipPath><clipPath id="clip-10"><path d="M 273 59.363281 L 375 59.363281 L 375 161 L 273 161 Z M 273 59.363281 " clip-rule="nonzero"/></clipPath><clipPath id="clip-11"><path d="M 307 59.363281 L 375 59.363281 L 375 127 L 307 127 Z M 307 59.363281 " clip-rule="nonzero"/></clipPath><clipPath id="clip-12"><path d="M 341 59.363281 L 375 59.363281 L 375 94 L 341 94 Z M 341 59.363281 " clip-rule="nonzero"/></clipPath></defs><g clip-path="url(#clip-0)"><path fill="rgb(25.099182%, 38.42926%, 73.329163%)" d="M 374.996094 59.363281 L 0.00390625 59.363281 L 0.00390625 309.113281 L 374.996094 309.113281 Z M 374.996094 59.363281 " fill-opacity="1" fill-rule="nonzero"/></g><g clip-path="url(#clip-1)"><path fill="rgb(23.919678%, 36.079407%, 73.728943%)" d="M 202.792969 309.113281 C 188.957031 286.886719 175.125 264.617188 166.667969 240.140625 C 158.25 215.664062 155.25 188.941406 141.417969 167.839844 C 127.625 146.734375 103 131.207031 77.625 121.925781 C 52.253906 112.644531 26.128906 109.5625 0.00390625 106.523438 L 0.00390625 309.113281 Z M 202.792969 309.113281 " fill-opacity="1" fill-rule="nonzero"/></g><g clip-path="url(#clip-2)"><path fill="rgb(23.139954%, 31.369019%, 73.728943%)" d="M 169 309.113281 C 157.457031 290.589844 145.917969 272.027344 138.917969 251.628906 C 131.875 231.234375 129.375 208.964844 117.835938 191.398438 C 106.335938 173.789062 85.835938 160.84375 64.667969 153.144531 C 43.542969 145.402344 21.753906 142.820312 0.00390625 140.28125 L 0.00390625 309.113281 Z M 169 309.113281 " fill-opacity="1" fill-rule="nonzero"/></g><g clip-path="url(#clip-3)"><path fill="rgb(23.919678%, 25.878906%, 72.938538%)" d="M 135.210938 309.113281 C 125.960938 294.296875 116.75 279.433594 111.125 263.117188 C 105.5 246.800781 103.5 228.984375 94.292969 214.917969 C 85.085938 200.847656 68.667969 190.523438 51.753906 184.320312 C 34.835938 178.121094 17.417969 176.082031 0.00390625 174.039062 L 0.00390625 309.113281 Z M 135.210938 309.113281 " fill-opacity="1" fill-rule="nonzero"/></g><g clip-path="url(#clip-4)"><path fill="rgb(26.669312%, 19.219971%, 71.759033%)" d="M 101.417969 309.113281 C 94.5 298 87.542969 286.886719 83.335938 274.605469 C 79.125 262.367188 77.625 249.050781 70.710938 238.476562 C 63.792969 227.902344 51.503906 220.160156 38.792969 215.539062 C 26.128906 210.878906 13.042969 209.339844 0.00390625 207.796875 L 0.00390625 309.113281 Z M 101.417969 309.113281 " fill-opacity="1" fill-rule="nonzero"/></g><g clip-path="url(#clip-5)"><path fill="rgb(30.198669%, 9.799194%, 69.40918%)" d="M 67.585938 309.113281 C 63 301.703125 58.378906 294.296875 55.542969 286.136719 C 52.753906 277.976562 51.753906 269.070312 47.128906 262.035156 C 42.542969 255 34.335938 249.796875 25.878906 246.71875 C 17.417969 243.636719 8.710938 242.597656 0.00390625 241.597656 L 0.00390625 309.113281 Z M 67.585938 309.113281 " fill-opacity="1" fill-rule="nonzero"/></g><g clip-path="url(#clip-6)"><path fill="rgb(32.159424%, 0%, 68.238831%)" d="M 33.792969 309.113281 C 31.503906 305.410156 29.167969 301.703125 27.792969 297.625 C 26.378906 293.546875 25.878906 289.09375 23.585938 285.554688 C 21.253906 282.058594 17.167969 279.476562 12.917969 277.9375 C 8.710938 276.355469 4.335938 275.855469 0.00390625 275.355469 L 0.00390625 309.113281 Z M 33.792969 309.113281 " fill-opacity="1" fill-rule="nonzero"/></g><g clip-path="url(#clip-7)"><path fill="rgb(23.919678%, 36.079407%, 73.728943%)" d="M 172.207031 59.363281 C 174.332031 86.253906 176.5 113.144531 187.625 136.910156 C 198.75 160.679688 218.875 181.324219 240.664062 193.5625 C 262.414062 205.84375 285.832031 209.714844 308.5 219.746094 C 331.164062 229.734375 353.082031 245.84375 374.996094 261.953125 L 374.996094 59.363281 Z M 172.207031 59.363281 " fill-opacity="1" fill-rule="nonzero"/></g><g clip-path="url(#clip-8)"><path fill="rgb(23.139954%, 31.369019%, 73.728943%)" d="M 206 59.363281 C 207.792969 81.757812 209.582031 104.152344 218.875 123.964844 C 228.125 143.78125 244.914062 160.96875 263.039062 171.210938 C 281.164062 181.449219 300.707031 184.65625 319.582031 192.980469 C 338.496094 201.347656 356.746094 214.75 374.996094 228.195312 L 374.996094 59.363281 Z M 206 59.363281 " fill-opacity="1" fill-rule="nonzero"/></g><g clip-path="url(#clip-9)"><path fill="rgb(23.919678%, 25.878906%, 72.938538%)" d="M 239.789062 59.363281 C 241.207031 77.304688 242.664062 95.203125 250.082031 111.0625 C 257.5 126.878906 270.914062 140.65625 285.414062 148.859375 C 299.957031 157.015625 315.539062 159.597656 330.664062 166.257812 C 345.789062 172.957031 360.371094 183.699219 374.996094 194.4375 L 374.996094 59.363281 Z M 239.789062 59.363281 " fill-opacity="1" fill-rule="nonzero"/></g><g clip-path="url(#clip-10)"><path fill="rgb(26.669312%, 19.219971%, 71.759033%)" d="M 273.582031 59.363281 C 274.664062 72.808594 275.75 86.253906 281.332031 98.117188 C 286.875 110.019531 296.957031 120.34375 307.832031 126.464844 C 318.707031 132.625 330.414062 134.539062 341.746094 139.535156 C 353.082031 144.527344 364.039062 152.605469 374.996094 160.679688 L 374.996094 59.363281 Z M 273.582031 59.363281 " fill-opacity="1" fill-rule="nonzero"/></g><g clip-path="url(#clip-11)"><path fill="rgb(30.198669%, 9.799194%, 69.40918%)" d="M 307.414062 59.363281 C 308.125 68.3125 308.832031 77.304688 312.539062 85.214844 C 316.246094 93.121094 322.957031 100.03125 330.207031 104.109375 C 337.457031 108.191406 345.289062 109.480469 352.832031 112.808594 C 360.371094 116.140625 367.707031 121.511719 374.996094 126.878906 L 374.996094 59.363281 Z M 307.414062 59.363281 " fill-opacity="1" fill-rule="nonzero"/></g><g clip-path="url(#clip-12)"><path fill="rgb(32.159424%, 0%, 68.238831%)" d="M 341.207031 59.363281 C 341.539062 63.859375 341.914062 68.3125 343.789062 72.265625 C 345.621094 76.261719 348.996094 79.675781 352.621094 81.714844 C 356.246094 83.796875 360.121094 84.421875 363.914062 86.085938 C 367.707031 87.753906 371.332031 90.457031 374.996094 93.121094 L 374.996094 59.363281 Z M 341.207031 59.363281 " fill-opacity="1" fill-rule="nonzero"/></g></svg>