<svg id="visual" viewBox="0 0 900 600" width="900" height="600" xmlns="http://www.w3.org/2000/svg" xmlns:xlink="http://www.w3.org/1999/xlink" version="1.1"><rect x="0" y="0" width="900" height="600" fill="#4062bb"></rect><defs><linearGradient id="grad1_0" x1="33.3%" y1="100%" x2="100%" y2="0%"><stop offset="20%" stop-color="#5200ae" stop-opacity="1"></stop><stop offset="80%" stop-color="#5200ae" stop-opacity="1"></stop></linearGradient></defs><defs><linearGradient id="grad1_1" x1="33.3%" y1="100%" x2="100%" y2="0%"><stop offset="20%" stop-color="#5200ae" stop-opacity="1"></stop><stop offset="80%" stop-color="#4827b4" stop-opacity="1"></stop></linearGradient></defs><defs><linearGradient id="grad1_2" x1="33.3%" y1="100%" x2="100%" y2="0%"><stop offset="20%" stop-color="#403ab9" stop-opacity="1"></stop><stop offset="80%" stop-color="#4827b4" stop-opacity="1"></stop></linearGradient></defs><defs><linearGradient id="grad1_3" x1="33.3%" y1="100%" x2="100%" y2="0%"><stop offset="20%" stop-color="#403ab9" stop-opacity="1"></stop><stop offset="80%" stop-color="#3b49bb" stop-opacity="1"></stop></linearGradient></defs><defs><linearGradient id="grad1_4" x1="33.3%" y1="100%" x2="100%" y2="0%"><stop offset="20%" stop-color="#3b56bc" stop-opacity="1"></stop><stop offset="80%" stop-color="#3b49bb" stop-opacity="1"></stop></linearGradient></defs><defs><linearGradient id="grad1_5" x1="33.3%" y1="100%" x2="100%" y2="0%"><stop offset="20%" stop-color="#3b56bc" stop-opacity="1"></stop><stop offset="80%" stop-color="#4062bb" stop-opacity="1"></stop></linearGradient></defs><defs><linearGradient id="grad2_0" x1="0%" y1="100%" x2="66.7%" y2="0%"><stop offset="20%" stop-color="#5200ae" stop-opacity="1"></stop><stop offset="80%" stop-color="#5200ae" stop-opacity="1"></stop></linearGradient></defs><defs><linearGradient id="grad2_1" x1="0%" y1="100%" x2="66.7%" y2="0%"><stop offset="20%" stop-color="#4827b4" stop-opacity="1"></stop><stop offset="80%" stop-color="#5200ae" stop-opacity="1"></stop></linearGradient></defs><defs><linearGradient id="grad2_2" x1="0%" y1="100%" x2="66.7%" y2="0%"><stop offset="20%" stop-color="#4827b4" stop-opacity="1"></stop><stop offset="80%" stop-color="#403ab9" stop-opacity="1"></stop></linearGradient></defs><defs><linearGradient id="grad2_3" x1="0%" y1="100%" x2="66.7%" y2="0%"><stop offset="20%" stop-color="#3b49bb" stop-opacity="1"></stop><stop offset="80%" stop-color="#403ab9" stop-opacity="1"></stop></linearGradient></defs><defs><linearGradient id="grad2_4" x1="0%" y1="100%" x2="66.7%" y2="0%"><stop offset="20%" stop-color="#3b49bb" stop-opacity="1"></stop><stop offset="80%" stop-color="#3b56bc" stop-opacity="1"></stop></linearGradient></defs><defs><linearGradient id="grad2_5" x1="0%" y1="100%" x2="66.7%" y2="0%"><stop offset="20%" stop-color="#4062bb" stop-opacity="1"></stop><stop offset="80%" stop-color="#3b56bc" stop-opacity="1"></stop></linearGradient></defs><g transform="translate(900, 600)"><path d="M-486.7 0C-453.5 -53.4 -420.3 -106.9 -400 -165.7C-379.8 -224.5 -372.6 -288.7 -339.4 -339.4C-306.3 -390.1 -247.2 -427.4 -186.3 -449.7C-125.4 -472 -62.7 -479.4 0 -486.7L0 0Z" fill="#3d5cbc"></path><path d="M-405.6 0C-377.9 -44.5 -350.2 -89.1 -333.4 -138.1C-316.5 -187.1 -310.5 -240.6 -282.8 -282.8C-255.2 -325.1 -206 -356.2 -155.2 -374.7C-104.5 -393.3 -52.2 -399.5 0 -405.6L0 0Z" fill="#3b50bc"></path><path d="M-324.5 0C-302.3 -35.6 -280.2 -71.3 -266.7 -110.5C-253.2 -149.7 -248.4 -192.5 -226.3 -226.3C-204.2 -260.1 -164.8 -284.9 -124.2 -299.8C-83.6 -314.7 -41.8 -319.6 0 -324.5L0 0Z" fill="#3d42ba"></path><path d="M-243.4 0C-226.8 -26.7 -210.1 -53.4 -200 -82.9C-189.9 -112.3 -186.3 -144.3 -169.7 -169.7C-153.1 -195.1 -123.6 -213.7 -93.1 -224.8C-62.7 -236 -31.3 -239.7 0 -243.4L0 0Z" fill="#4431b7"></path><path d="M-162.2 0C-151.2 -17.8 -140.1 -35.6 -133.3 -55.2C-126.6 -74.8 -124.2 -96.2 -113.1 -113.1C-102.1 -130 -82.4 -142.5 -62.1 -149.9C-41.8 -157.3 -20.9 -159.8 0 -162.2L0 0Z" fill="#4d19b1"></path><path d="M-81.1 0C-75.6 -8.9 -70 -17.8 -66.7 -27.6C-63.3 -37.4 -62.1 -48.1 -56.6 -56.6C-51 -65 -41.2 -71.2 -31 -74.9C-20.9 -78.7 -10.4 -79.9 0 -81.1L0 0Z" fill="#5200ae"></path></g><g transform="translate(0, 0)"><path d="M486.7 0C481.6 64.6 476.4 129.2 449.7 186.3C423 243.4 374.7 293 322.4 322.4C270.2 351.9 214 361.2 159.6 385.3C105.2 409.3 52.6 448 0 486.7L0 0Z" fill="#3d5cbc"></path><path d="M405.6 0C401.3 53.8 397 107.6 374.7 155.2C352.5 202.8 312.2 244.1 268.7 268.7C225.2 293.3 178.3 301 133 321C87.6 341.1 43.8 373.3 0 405.6L0 0Z" fill="#3b50bc"></path><path d="M324.5 0C321.1 43.1 317.6 86.1 299.8 124.2C282 162.2 249.8 195.3 215 215C180.1 234.6 142.7 240.8 106.4 256.8C70.1 272.9 35.1 298.7 0 324.5L0 0Z" fill="#3d42ba"></path><path d="M243.4 0C240.8 32.3 238.2 64.6 224.8 93.1C211.5 121.7 187.3 146.5 161.2 161.2C135.1 176 107 180.6 79.8 192.6C52.6 204.6 26.3 224 0 243.4L0 0Z" fill="#4431b7"></path><path d="M162.2 0C160.5 21.5 158.8 43.1 149.9 62.1C141 81.1 124.9 97.7 107.5 107.5C90.1 117.3 71.3 120.4 53.2 128.4C35.1 136.4 17.5 149.3 0 162.2L0 0Z" fill="#4d19b1"></path><path d="M81.1 0C80.3 10.8 79.4 21.5 74.9 31C70.5 40.6 62.4 48.8 53.7 53.7C45 58.7 35.7 60.2 26.6 64.2C17.5 68.2 8.8 74.7 0 81.1L0 0Z" fill="#5200ae"></path></g></svg>