<?xml version="1.0" encoding="UTF-8"?><svg xmlns="http://www.w3.org/2000/svg" xmlns:xlink="http://www.w3.org/1999/xlink" contentScriptType="text/ecmascript" width="375" zoomAndPan="magnify" contentStyleType="text/css" viewBox="0 0 375 374.999991" height="374.999991" preserveAspectRatio="xMidYMid meet" version="1.0"><path fill="rgb(83.139038%, 67.449951%, 100%)" d="M 254.527344 16.921875 C 256.355469 16.921875 257.851562 18.417969 257.851562 20.246094 L 257.851562 105.714844 C 257.851562 107.542969 256.355469 109.042969 254.527344 109.042969 L 169.054688 109.042969 C 167.230469 109.042969 165.730469 107.542969 165.730469 105.714844 L 165.730469 20.246094 C 165.730469 18.417969 167.230469 16.921875 169.054688 16.921875 L 254.527344 16.921875 M 254.527344 13.855469 L 169.054688 13.855469 C 165.535156 13.855469 162.667969 16.722656 162.667969 20.246094 L 162.667969 105.714844 C 162.667969 109.238281 165.535156 112.105469 169.054688 112.105469 L 254.527344 112.105469 C 258.046875 112.105469 260.917969 109.238281 260.917969 105.714844 L 260.917969 20.246094 C 260.917969 16.722656 258.046875 13.855469 254.527344 13.855469 Z M 254.527344 13.855469 " fill-opacity="1" fill-rule="nonzero"/><path fill="rgb(100%, 100%, 100%)" d="M 155.574219 216.699219 C 157.496094 216.699219 159.078125 218.277344 159.078125 220.199219 L 159.078125 310.238281 C 159.078125 312.160156 157.496094 313.742188 155.574219 313.742188 L 65.535156 313.742188 C 63.613281 313.742188 62.03125 312.160156 62.03125 310.238281 L 62.03125 220.199219 C 62.03125 218.277344 63.613281 216.699219 65.535156 216.699219 L 155.574219 216.699219 M 155.574219 213.46875 L 65.535156 213.46875 C 61.824219 213.46875 58.804688 216.492188 58.804688 220.199219 L 58.804688 310.238281 C 58.804688 313.949219 61.824219 316.96875 65.535156 316.96875 L 155.574219 316.96875 C 159.28125 316.96875 162.304688 313.949219 162.304688 310.238281 L 162.304688 220.199219 C 162.304688 216.492188 159.28125 213.46875 155.574219 213.46875 Z M 155.574219 213.46875 " fill-opacity="1" fill-rule="nonzero"/><path fill="rgb(100%, 100%, 100%)" d="M 341.84375 67.183594 C 344.4375 67.183594 346.566406 69.3125 346.566406 71.90625 L 346.566406 193.261719 C 346.566406 195.855469 344.4375 197.984375 341.84375 197.984375 L 220.488281 197.984375 C 217.898438 197.984375 215.769531 195.855469 215.769531 193.261719 L 215.769531 71.90625 C 215.769531 69.3125 217.898438 67.183594 220.488281 67.183594 L 341.84375 67.183594 M 341.84375 62.835938 L 220.488281 62.835938 C 215.492188 62.835938 211.417969 66.90625 211.417969 71.90625 L 211.417969 193.261719 C 211.417969 198.261719 215.492188 202.335938 220.488281 202.335938 L 341.84375 202.335938 C 346.84375 202.335938 350.917969 198.261719 350.917969 193.261719 L 350.917969 71.90625 C 350.917969 66.90625 346.84375 62.835938 341.84375 62.835938 Z M 341.84375 62.835938 " fill-opacity="1" fill-rule="nonzero"/><path fill="rgb(93.728638%, 87.838745%, 100%)" d="M 276.902344 191.851562 C 279.496094 191.851562 281.625 193.980469 281.625 196.570312 L 281.625 317.929688 C 281.625 320.519531 279.496094 322.648438 276.902344 322.648438 L 155.546875 322.648438 C 152.953125 322.648438 150.824219 320.519531 150.824219 317.929688 L 150.824219 196.570312 C 150.824219 193.980469 152.953125 191.851562 155.546875 191.851562 L 276.902344 191.851562 M 276.902344 187.5 L 155.546875 187.5 C 150.546875 187.5 146.472656 191.574219 146.472656 196.570312 L 146.472656 317.929688 C 146.472656 322.925781 150.546875 327 155.546875 327 L 276.902344 327 C 281.902344 327 285.972656 322.925781 285.972656 317.929688 L 285.972656 196.570312 C 285.972656 191.574219 281.902344 187.5 276.902344 187.5 Z M 276.902344 187.5 " fill-opacity="1" fill-rule="nonzero"/><path fill="rgb(100%, 100%, 100%)" d="M 225.632812 295.945312 L 99.707031 295.945312 C 94.523438 295.945312 90.296875 291.71875 90.296875 286.53125 L 90.296875 160.609375 C 90.296875 155.421875 94.523438 151.195312 99.707031 151.195312 L 225.632812 151.195312 C 230.820312 151.195312 235.046875 155.421875 235.046875 160.609375 L 235.046875 286.53125 C 235.046875 291.71875 230.820312 295.945312 225.632812 295.945312 Z M 225.632812 295.945312 " fill-opacity="1" fill-rule="nonzero"/><path fill="rgb(96.078491%, 94.119263%, 98.039246%)" d="M 139.542969 143.25 L 47.546875 143.25 C 43.757812 143.25 40.671875 140.164062 40.671875 136.375 L 40.671875 44.375 C 40.671875 40.585938 43.757812 37.5 47.546875 37.5 L 139.542969 37.5 C 143.332031 37.5 146.421875 40.585938 146.421875 44.375 L 146.421875 136.375 C 146.421875 140.164062 143.332031 143.25 139.542969 143.25 Z M 139.542969 143.25 " fill-opacity="1" fill-rule="nonzero"/><path fill="rgb(93.728638%, 87.838745%, 100%)" d="M 178.261719 101.238281 C 180.855469 101.238281 182.984375 103.367188 182.984375 105.957031 L 182.984375 227.316406 C 182.984375 229.90625 180.855469 232.035156 178.261719 232.035156 L 56.90625 232.035156 C 54.3125 232.035156 52.183594 229.90625 52.183594 227.316406 L 52.183594 105.957031 C 52.183594 103.367188 54.3125 101.238281 56.90625 101.238281 L 178.261719 101.238281 M 178.261719 96.886719 L 56.90625 96.886719 C 51.90625 96.886719 47.835938 100.960938 47.835938 105.957031 L 47.835938 227.316406 C 47.835938 232.3125 51.90625 236.386719 56.90625 236.386719 L 178.261719 236.386719 C 183.261719 236.386719 187.335938 232.3125 187.335938 227.316406 L 187.335938 105.957031 C 187.335938 100.960938 183.261719 96.886719 178.261719 96.886719 Z M 178.261719 96.886719 " fill-opacity="1" fill-rule="nonzero"/><path fill="rgb(96.078491%, 94.119263%, 98.039246%)" d="M 345.871094 213.769531 L 272.144531 213.769531 C 269.109375 213.769531 266.632812 211.296875 266.632812 208.257812 L 266.632812 134.53125 C 266.632812 131.496094 269.109375 129.019531 272.144531 129.019531 L 345.871094 129.019531 C 348.910156 129.019531 351.382812 131.496094 351.382812 134.53125 L 351.382812 208.257812 C 351.382812 211.296875 348.910156 213.769531 345.871094 213.769531 Z M 345.871094 213.769531 " fill-opacity="1" fill-rule="nonzero"/><path fill="rgb(93.728638%, 87.838745%, 100%)" d="M 277.253906 100.5 L 222.445312 100.5 C 220.1875 100.5 218.347656 98.660156 218.347656 96.402344 L 218.347656 41.597656 C 218.347656 39.339844 220.1875 37.5 222.445312 37.5 L 277.253906 37.5 C 279.507812 37.5 281.347656 39.339844 281.347656 41.597656 L 281.347656 96.402344 C 281.347656 98.660156 279.507812 100.5 277.253906 100.5 Z M 277.253906 100.5 " fill-opacity="1" fill-rule="nonzero"/><path fill="rgb(93.728638%, 87.838745%, 100%)" d="M 327.941406 367.9375 L 265.308594 367.9375 C 262.726562 367.9375 260.625 365.835938 260.625 363.257812 L 260.625 300.621094 C 260.625 298.042969 262.726562 295.9375 265.308594 295.9375 L 327.941406 295.9375 C 330.523438 295.9375 332.625 298.042969 332.625 300.621094 L 332.625 363.257812 C 332.625 365.835938 330.523438 367.9375 327.941406 367.9375 Z M 327.941406 367.9375 " fill-opacity="1" fill-rule="nonzero"/></svg>