<?xml version="1.0" encoding="UTF-8"?><svg xmlns="http://www.w3.org/2000/svg" xmlns:xlink="http://www.w3.org/1999/xlink" contentScriptType="text/ecmascript" width="375" zoomAndPan="magnify" contentStyleType="text/css" viewBox="0 0 375 374.999991" height="374.999991" preserveAspectRatio="xMidYMid meet" version="1.0"><path fill="rgb(42.749023%, 9.01947%, 79.60968%)" d="M 167.929688 41.851562 C 170.519531 41.851562 172.648438 43.980469 172.648438 46.570312 L 172.648438 167.929688 C 172.648438 170.519531 170.519531 172.648438 167.929688 172.648438 L 46.570312 172.648438 C 43.980469 172.648438 41.851562 170.519531 41.851562 167.929688 L 41.851562 46.570312 C 41.851562 43.980469 43.980469 41.851562 46.570312 41.851562 L 167.929688 41.851562 M 167.929688 37.5 L 46.570312 37.5 C 41.574219 37.5 37.5 41.574219 37.5 46.570312 L 37.5 167.929688 C 37.5 172.925781 41.574219 177 46.570312 177 L 167.929688 177 C 172.925781 177 177 172.925781 177 167.929688 L 177 46.570312 C 177 41.574219 172.925781 37.5 167.929688 37.5 Z M 167.929688 37.5 " fill-opacity="1" fill-rule="nonzero"/><path fill="rgb(67.059326%, 36.468506%, 100%)" d="M 254.527344 31.335938 C 256.355469 31.335938 257.851562 32.835938 257.851562 34.660156 L 257.851562 120.132812 C 257.851562 121.957031 256.355469 123.457031 254.527344 123.457031 L 169.054688 123.457031 C 167.230469 123.457031 165.730469 121.957031 165.730469 120.132812 L 165.730469 34.660156 C 165.730469 32.835938 167.230469 31.335938 169.054688 31.335938 L 254.527344 31.335938 M 254.527344 28.273438 L 169.054688 28.273438 C 165.535156 28.273438 162.667969 31.140625 162.667969 34.660156 L 162.667969 120.132812 C 162.667969 123.652344 165.535156 126.523438 169.054688 126.523438 L 254.527344 126.523438 C 258.046875 126.523438 260.917969 123.652344 260.917969 120.132812 L 260.917969 34.660156 C 260.917969 31.140625 258.046875 28.273438 254.527344 28.273438 Z M 254.527344 28.273438 " fill-opacity="1" fill-rule="nonzero"/><path fill="rgb(29.798889%, 0.779724%, 61.569214%)" d="M 155.574219 216.699219 C 157.496094 216.699219 159.078125 218.277344 159.078125 220.199219 L 159.078125 310.238281 C 159.078125 312.160156 157.496094 313.742188 155.574219 313.742188 L 65.535156 313.742188 C 63.613281 313.742188 62.03125 312.160156 62.03125 310.238281 L 62.03125 220.199219 C 62.03125 218.277344 63.613281 216.699219 65.535156 216.699219 L 155.574219 216.699219 M 155.574219 213.46875 L 65.535156 213.46875 C 61.824219 213.46875 58.804688 216.492188 58.804688 220.199219 L 58.804688 310.238281 C 58.804688 313.949219 61.824219 316.96875 65.535156 316.96875 L 155.574219 316.96875 C 159.28125 316.96875 162.304688 313.949219 162.304688 310.238281 L 162.304688 220.199219 C 162.304688 216.492188 159.28125 213.46875 155.574219 213.46875 Z M 155.574219 213.46875 " fill-opacity="1" fill-rule="nonzero"/><path fill="rgb(61.178589%, 43.919373%, 80.389404%)" d="M 341.84375 67.183594 C 344.4375 67.183594 346.566406 69.3125 346.566406 71.90625 L 346.566406 193.261719 C 346.566406 195.855469 344.4375 197.984375 341.84375 197.984375 L 220.488281 197.984375 C 217.898438 197.984375 215.769531 195.855469 215.769531 193.261719 L 215.769531 71.90625 C 215.769531 69.3125 217.898438 67.183594 220.488281 67.183594 L 341.84375 67.183594 M 341.84375 62.835938 L 220.488281 62.835938 C 215.492188 62.835938 211.417969 66.90625 211.417969 71.90625 L 211.417969 193.261719 C 211.417969 198.261719 215.492188 202.335938 220.488281 202.335938 L 341.84375 202.335938 C 346.84375 202.335938 350.917969 198.261719 350.917969 193.261719 L 350.917969 71.90625 C 350.917969 66.90625 346.84375 62.835938 341.84375 62.835938 Z M 341.84375 62.835938 " fill-opacity="1" fill-rule="nonzero"/><path fill="rgb(83.139038%, 67.449951%, 100%)" d="M 317.929688 206.851562 C 320.519531 206.851562 322.648438 208.980469 322.648438 211.570312 L 322.648438 332.929688 C 322.648438 335.519531 320.519531 337.648438 317.929688 337.648438 L 196.570312 337.648438 C 193.980469 337.648438 191.851562 335.519531 191.851562 332.929688 L 191.851562 211.570312 C 191.851562 208.980469 193.980469 206.851562 196.570312 206.851562 L 317.929688 206.851562 M 317.929688 202.5 L 196.570312 202.5 C 191.574219 202.5 187.5 206.574219 187.5 211.570312 L 187.5 332.929688 C 187.5 337.925781 191.574219 342 196.570312 342 L 317.929688 342 C 322.925781 342 327 337.925781 327 332.929688 L 327 211.570312 C 327 206.574219 322.925781 202.5 317.929688 202.5 Z M 317.929688 202.5 " fill-opacity="1" fill-rule="nonzero"/><path fill="rgb(42.749023%, 9.01947%, 79.60968%)" d="M 219.449219 272.058594 L 116.359375 272.058594 C 112.113281 272.058594 108.652344 268.597656 108.652344 264.351562 L 108.652344 161.265625 C 108.652344 157.019531 112.113281 153.558594 116.359375 153.558594 L 219.449219 153.558594 C 223.695312 153.558594 227.152344 157.019531 227.152344 161.265625 L 227.152344 264.351562 C 227.152344 268.597656 223.695312 272.058594 219.449219 272.058594 Z M 219.449219 272.058594 " fill-opacity="1" fill-rule="nonzero"/><path fill="rgb(82.749939%, 70.588684%, 96.469116%)" d="M 80.6875 147.570312 L 10.875 147.570312 C 7.996094 147.570312 5.65625 145.226562 5.65625 142.351562 L 5.65625 72.539062 C 5.65625 69.664062 7.996094 67.320312 10.875 67.320312 L 80.6875 67.320312 C 83.5625 67.320312 85.90625 69.664062 85.90625 72.539062 L 85.90625 142.351562 C 85.90625 145.226562 83.5625 147.570312 80.6875 147.570312 Z M 80.6875 147.570312 " fill-opacity="1" fill-rule="nonzero"/><path fill="rgb(67.059326%, 36.468506%, 100%)" d="M 356.242188 187.875 L 282.515625 187.875 C 279.480469 187.875 277.003906 185.402344 277.003906 182.363281 L 277.003906 108.636719 C 277.003906 105.597656 279.480469 103.125 282.515625 103.125 L 356.242188 103.125 C 359.28125 103.125 361.753906 105.597656 361.753906 108.636719 L 361.753906 182.363281 C 361.753906 185.402344 359.28125 187.875 356.242188 187.875 Z M 356.242188 187.875 " fill-opacity="1" fill-rule="nonzero"/><path fill="rgb(93.728638%, 87.838745%, 100%)" d="M 258.503906 98.867188 L 203.695312 98.867188 C 201.4375 98.867188 199.597656 97.027344 199.597656 94.773438 L 199.597656 39.964844 C 199.597656 37.707031 201.4375 35.867188 203.695312 35.867188 L 258.503906 35.867188 C 260.757812 35.867188 262.597656 37.707031 262.597656 39.964844 L 262.597656 94.773438 C 262.597656 97.027344 260.757812 98.867188 258.503906 98.867188 Z M 258.503906 98.867188 " fill-opacity="1" fill-rule="nonzero"/><path fill="rgb(61.178589%, 43.919373%, 80.389404%)" d="M 147.75 368.96875 L 74.023438 368.96875 C 70.984375 368.96875 68.511719 366.492188 68.511719 363.457031 L 68.511719 289.730469 C 68.511719 286.691406 70.984375 284.21875 74.023438 284.21875 L 147.75 284.21875 C 150.785156 284.21875 153.261719 286.691406 153.261719 289.730469 L 153.261719 363.457031 C 153.261719 366.492188 150.785156 368.96875 147.75 368.96875 Z M 147.75 368.96875 " fill-opacity="1" fill-rule="nonzero"/></svg>